<mxfile host="app.diagrams.net" modified="2024-03-23T16:35:38.052Z" agent="Mozilla/5.0 (Windows NT 10.0; Win64; x64) AppleWebKit/537.36 (KHTML, like Gecko) Chrome/123.0.0.0 Safari/537.36" etag="_7FA7Ahjdvw1B7AiAECh" version="24.0.7" type="device">
  <diagram name="Page-1" id="GRnJ5YHPg1x4JgXYj_Po">
    <mxGraphModel dx="393" dy="635" grid="1" gridSize="10" guides="1" tooltips="1" connect="1" arrows="1" fold="1" page="1" pageScale="1" pageWidth="850" pageHeight="1100" math="0" shadow="0">
      <root>
        <mxCell id="0" />
        <mxCell id="1" parent="0" />
        <mxCell id="--xIb-OTsvBn6BZHmozW-1" value="0" style="ellipse;whiteSpace=wrap;html=1;aspect=fixed;fillColor=#ffe6cc;strokeColor=#d79b00;" vertex="1" parent="1">
          <mxGeometry x="120" y="260" width="80" height="80" as="geometry" />
        </mxCell>
        <mxCell id="--xIb-OTsvBn6BZHmozW-2" value="1" style="ellipse;whiteSpace=wrap;html=1;aspect=fixed;fillColor=#ffe6cc;strokeColor=#d79b00;" vertex="1" parent="1">
          <mxGeometry x="300" y="150" width="80" height="80" as="geometry" />
        </mxCell>
        <mxCell id="--xIb-OTsvBn6BZHmozW-3" value="2" style="ellipse;whiteSpace=wrap;html=1;aspect=fixed;fillColor=#ffe6cc;strokeColor=#d79b00;" vertex="1" parent="1">
          <mxGeometry x="470" y="270" width="80" height="80" as="geometry" />
        </mxCell>
        <mxCell id="--xIb-OTsvBn6BZHmozW-4" value="3" style="ellipse;whiteSpace=wrap;html=1;aspect=fixed;fillColor=#ffe6cc;strokeColor=#d79b00;" vertex="1" parent="1">
          <mxGeometry x="385" y="460" width="80" height="80" as="geometry" />
        </mxCell>
        <mxCell id="--xIb-OTsvBn6BZHmozW-5" value="4" style="ellipse;whiteSpace=wrap;html=1;aspect=fixed;fillColor=#ffe6cc;strokeColor=#d79b00;" vertex="1" parent="1">
          <mxGeometry x="160" y="450" width="80" height="80" as="geometry" />
        </mxCell>
        <mxCell id="--xIb-OTsvBn6BZHmozW-7" value="" style="endArrow=classic;html=1;rounded=0;exitX=0;exitY=0.5;exitDx=0;exitDy=0;entryX=1;entryY=0.5;entryDx=0;entryDy=0;fontSize=15;fillColor=#d5e8d4;strokeColor=#82b366;" edge="1" parent="1" source="--xIb-OTsvBn6BZHmozW-3" target="--xIb-OTsvBn6BZHmozW-1">
          <mxGeometry width="50" height="50" relative="1" as="geometry">
            <mxPoint x="280" y="370" as="sourcePoint" />
            <mxPoint x="330" y="320" as="targetPoint" />
          </mxGeometry>
        </mxCell>
        <mxCell id="--xIb-OTsvBn6BZHmozW-8" value="1" style="edgeLabel;html=1;align=center;verticalAlign=middle;resizable=0;points=[];" vertex="1" connectable="0" parent="--xIb-OTsvBn6BZHmozW-7">
          <mxGeometry x="-0.0296" relative="1" as="geometry">
            <mxPoint as="offset" />
          </mxGeometry>
        </mxCell>
        <mxCell id="--xIb-OTsvBn6BZHmozW-12" value="" style="endArrow=classic;html=1;rounded=0;exitX=0;exitY=0;exitDx=0;exitDy=0;entryX=1;entryY=1;entryDx=0;entryDy=0;fillColor=#f8cecc;strokeColor=#b85450;" edge="1" parent="1" source="--xIb-OTsvBn6BZHmozW-4" target="--xIb-OTsvBn6BZHmozW-1">
          <mxGeometry width="50" height="50" relative="1" as="geometry">
            <mxPoint x="260" y="430" as="sourcePoint" />
            <mxPoint x="310" y="380" as="targetPoint" />
          </mxGeometry>
        </mxCell>
        <mxCell id="--xIb-OTsvBn6BZHmozW-13" value="-4" style="edgeLabel;html=1;align=center;verticalAlign=middle;resizable=0;points=[];" vertex="1" connectable="0" parent="--xIb-OTsvBn6BZHmozW-12">
          <mxGeometry x="-0.1041" y="-1" relative="1" as="geometry">
            <mxPoint as="offset" />
          </mxGeometry>
        </mxCell>
        <mxCell id="--xIb-OTsvBn6BZHmozW-14" value="" style="endArrow=classic;html=1;rounded=0;entryX=0.056;entryY=0.733;entryDx=0;entryDy=0;entryPerimeter=0;exitX=1;exitY=0;exitDx=0;exitDy=0;fillColor=#d5e8d4;strokeColor=#82b366;" edge="1" parent="1" source="--xIb-OTsvBn6BZHmozW-1" target="--xIb-OTsvBn6BZHmozW-2">
          <mxGeometry width="50" height="50" relative="1" as="geometry">
            <mxPoint x="240" y="340" as="sourcePoint" />
            <mxPoint x="290" y="290" as="targetPoint" />
          </mxGeometry>
        </mxCell>
        <mxCell id="--xIb-OTsvBn6BZHmozW-15" value="3" style="edgeLabel;html=1;align=center;verticalAlign=middle;resizable=0;points=[];" vertex="1" connectable="0" parent="--xIb-OTsvBn6BZHmozW-14">
          <mxGeometry x="0.0574" y="-1" relative="1" as="geometry">
            <mxPoint as="offset" />
          </mxGeometry>
        </mxCell>
        <mxCell id="--xIb-OTsvBn6BZHmozW-16" value="" style="endArrow=classic;html=1;rounded=0;exitX=0.931;exitY=0.765;exitDx=0;exitDy=0;entryX=0;entryY=0;entryDx=0;entryDy=0;exitPerimeter=0;fillColor=#d5e8d4;strokeColor=#82b366;" edge="1" parent="1" source="--xIb-OTsvBn6BZHmozW-2" target="--xIb-OTsvBn6BZHmozW-3">
          <mxGeometry width="50" height="50" relative="1" as="geometry">
            <mxPoint x="370" y="340" as="sourcePoint" />
            <mxPoint x="420" y="290" as="targetPoint" />
          </mxGeometry>
        </mxCell>
        <mxCell id="--xIb-OTsvBn6BZHmozW-17" value="6" style="edgeLabel;html=1;align=center;verticalAlign=middle;resizable=0;points=[];" vertex="1" connectable="0" parent="--xIb-OTsvBn6BZHmozW-16">
          <mxGeometry x="0.1713" y="3" relative="1" as="geometry">
            <mxPoint as="offset" />
          </mxGeometry>
        </mxCell>
        <mxCell id="--xIb-OTsvBn6BZHmozW-18" value="" style="endArrow=classic;html=1;rounded=0;exitX=0.692;exitY=0.046;exitDx=0;exitDy=0;exitPerimeter=0;fillColor=#f8cecc;strokeColor=#b85450;" edge="1" parent="1" source="--xIb-OTsvBn6BZHmozW-4" target="--xIb-OTsvBn6BZHmozW-3">
          <mxGeometry width="50" height="50" relative="1" as="geometry">
            <mxPoint x="320" y="400" as="sourcePoint" />
            <mxPoint x="370" y="350" as="targetPoint" />
          </mxGeometry>
        </mxCell>
        <mxCell id="--xIb-OTsvBn6BZHmozW-19" value="5" style="edgeLabel;html=1;align=center;verticalAlign=middle;resizable=0;points=[];" vertex="1" connectable="0" parent="--xIb-OTsvBn6BZHmozW-18">
          <mxGeometry x="-0.2177" relative="1" as="geometry">
            <mxPoint as="offset" />
          </mxGeometry>
        </mxCell>
        <mxCell id="--xIb-OTsvBn6BZHmozW-20" value="" style="endArrow=classic;html=1;rounded=0;exitX=0.91;exitY=0.223;exitDx=0;exitDy=0;exitPerimeter=0;entryX=0.025;entryY=0.733;entryDx=0;entryDy=0;entryPerimeter=0;fillColor=#f8cecc;strokeColor=#b85450;" edge="1" parent="1" source="--xIb-OTsvBn6BZHmozW-5" target="--xIb-OTsvBn6BZHmozW-3">
          <mxGeometry width="50" height="50" relative="1" as="geometry">
            <mxPoint x="290" y="420" as="sourcePoint" />
            <mxPoint x="340" y="370" as="targetPoint" />
          </mxGeometry>
        </mxCell>
        <mxCell id="--xIb-OTsvBn6BZHmozW-21" value="2" style="edgeLabel;html=1;align=center;verticalAlign=middle;resizable=0;points=[];" vertex="1" connectable="0" parent="--xIb-OTsvBn6BZHmozW-20">
          <mxGeometry x="0.1468" y="-1" relative="1" as="geometry">
            <mxPoint as="offset" />
          </mxGeometry>
        </mxCell>
        <mxCell id="--xIb-OTsvBn6BZHmozW-22" value="" style="endArrow=classic;html=1;rounded=0;exitX=1;exitY=0.5;exitDx=0;exitDy=0;entryX=0;entryY=0.5;entryDx=0;entryDy=0;fillColor=#f8cecc;strokeColor=#b85450;" edge="1" parent="1" source="--xIb-OTsvBn6BZHmozW-5" target="--xIb-OTsvBn6BZHmozW-4">
          <mxGeometry width="50" height="50" relative="1" as="geometry">
            <mxPoint x="300" y="400" as="sourcePoint" />
            <mxPoint x="350" y="350" as="targetPoint" />
          </mxGeometry>
        </mxCell>
        <mxCell id="--xIb-OTsvBn6BZHmozW-23" value="2" style="edgeLabel;html=1;align=center;verticalAlign=middle;resizable=0;points=[];" vertex="1" connectable="0" parent="--xIb-OTsvBn6BZHmozW-22">
          <mxGeometry x="-0.0401" y="-1" relative="1" as="geometry">
            <mxPoint as="offset" />
          </mxGeometry>
        </mxCell>
        <mxCell id="--xIb-OTsvBn6BZHmozW-24" value="" style="endArrow=classic;html=1;rounded=0;exitX=0.369;exitY=0.015;exitDx=0;exitDy=0;exitPerimeter=0;entryX=0.5;entryY=1;entryDx=0;entryDy=0;fillColor=#f8cecc;strokeColor=#b85450;" edge="1" parent="1" source="--xIb-OTsvBn6BZHmozW-5" target="--xIb-OTsvBn6BZHmozW-1">
          <mxGeometry width="50" height="50" relative="1" as="geometry">
            <mxPoint x="300" y="400" as="sourcePoint" />
            <mxPoint x="350" y="350" as="targetPoint" />
          </mxGeometry>
        </mxCell>
        <mxCell id="--xIb-OTsvBn6BZHmozW-25" value="1" style="edgeLabel;html=1;align=center;verticalAlign=middle;resizable=0;points=[];" vertex="1" connectable="0" parent="--xIb-OTsvBn6BZHmozW-24">
          <mxGeometry x="-0.1138" relative="1" as="geometry">
            <mxPoint as="offset" />
          </mxGeometry>
        </mxCell>
        <mxCell id="--xIb-OTsvBn6BZHmozW-26" value="" style="endArrow=classic;html=1;rounded=0;exitX=0.723;exitY=0.035;exitDx=0;exitDy=0;exitPerimeter=0;entryX=0.317;entryY=0.994;entryDx=0;entryDy=0;entryPerimeter=0;fillColor=#f8cecc;strokeColor=#b85450;" edge="1" parent="1" source="--xIb-OTsvBn6BZHmozW-5" target="--xIb-OTsvBn6BZHmozW-2">
          <mxGeometry width="50" height="50" relative="1" as="geometry">
            <mxPoint x="300" y="400" as="sourcePoint" />
            <mxPoint x="350" y="350" as="targetPoint" />
          </mxGeometry>
        </mxCell>
        <mxCell id="--xIb-OTsvBn6BZHmozW-27" value="3" style="edgeLabel;html=1;align=center;verticalAlign=middle;resizable=0;points=[];" vertex="1" connectable="0" parent="--xIb-OTsvBn6BZHmozW-26">
          <mxGeometry x="0.0101" y="-3" relative="1" as="geometry">
            <mxPoint as="offset" />
          </mxGeometry>
        </mxCell>
      </root>
    </mxGraphModel>
  </diagram>
</mxfile>
